<?xml version="1.0" encoding="utf-8"?>
<!-- Generator: Adobe Illustrator 16.0.0, SVG Export Plug-In . SVG Version: 6.00 Build 0)  -->
<!DOCTYPE svg PUBLIC "-//W3C//DTD SVG 1.1//EN" "http://www.w3.org/Graphics/SVG/1.1/DTD/svg11.dtd">
<svg version="1.1" id="Layer_1" xmlns="http://www.w3.org/2000/svg" xmlns:xlink="http://www.w3.org/1999/xlink" x="0px" y="0px"
	 width="244.904px" height="311.204px" viewBox="-19.684 -84.185 244.904 311.204"
	 enable-background="new -19.684 -84.185 244.904 311.204" xml:space="preserve">
<g>
	<path fill="#2B2A2A" d="M111.798,212.285H5.446V-69.448h110.765c9.896,0,19.327,1.875,28.295,5.62
		c8.962,3.749,16.718,8.967,23.276,15.652c6.553,6.69,11.771,14.448,15.651,23.276c3.876,8.83,5.82,18.199,5.82,28.093
		c0,10.173-2.546,19.804-7.626,28.897c-5.084,9.098-11.104,16.994-18.059,23.678c1.334,0.804,2.539,1.744,3.611,2.811
		c1.065,1.071,2.138,2.144,3.209,3.209c8.561,8.565,15.654,18.128,21.272,28.695c5.618,10.572,8.428,21.741,8.428,33.511
		c0,24.351-8.698,45.218-26.086,62.608c-8.298,8.293-17.729,14.646-28.295,19.062C135.137,210.08,123.838,212.285,111.798,212.285z
		 M45.579,36.102h66.219h4.814c8.83,0,16.455-3.212,22.877-9.631c6.422-6.422,9.631-14.18,9.631-23.279
		c0-9.092-3.209-16.786-9.631-23.076c-6.422-6.282-14.186-9.431-23.278-9.431H45.579V36.102z M45.579,172.152h66.219
		c6.685,0,12.904-1.266,18.661-3.812c5.749-2.541,10.835-6.021,15.25-10.434c4.415-4.416,7.89-9.496,10.435-15.252
		c2.54-5.75,3.813-11.971,3.813-18.661c0-6.422-1.205-12.374-3.613-17.86c-2.406-5.479-5.618-10.364-9.632-14.648
		c-4.013-4.276-8.766-7.756-14.246-10.435c-5.486-2.671-11.307-4.276-17.458-4.815H45.579V172.152z"/>
</g>
</svg>
