<?xml version="1.0" encoding="utf-8"?>
<!-- Generator: Adobe Illustrator 16.0.0, SVG Export Plug-In . SVG Version: 6.00 Build 0)  -->
<!DOCTYPE svg PUBLIC "-//W3C//DTD SVG 1.1//EN" "http://www.w3.org/Graphics/SVG/1.1/DTD/svg11.dtd">
<svg version="1.1" id="Layer_1" xmlns="http://www.w3.org/2000/svg" xmlns:xlink="http://www.w3.org/1999/xlink" x="0px" y="0px"
	 width="31.5px" height="59.5px" viewBox="0 0 31.5 59.5" enable-background="new 0 0 31.5 59.5" xml:space="preserve">
<g>
	<path fill="#1E2B59" d="M18.63,40.01h-7.2v-4.752c0-3.552,0.528-6.455,1.584-8.712c0.528-1.104,1.26-2.124,2.196-3.06
		c0.936-0.937,1.883-1.812,2.844-2.628c0.527-0.528,1.044-1.02,1.548-1.477c0.504-0.455,0.947-0.924,1.332-1.403
		c0.336-0.384,0.54-0.685,0.612-0.9s0.108-0.371,0.108-0.468c0-1.632-0.576-3.024-1.729-4.177c-1.152-1.151-2.545-1.728-4.176-1.728
		c-1.633,0-3.024,0.576-4.176,1.728c-1.152,1.152-1.729,2.545-1.729,4.177h-7.2c0-1.775,0.348-3.468,1.044-5.076
		c0.695-1.607,1.632-2.999,2.809-4.176c1.176-1.176,2.556-2.112,4.14-2.809c1.584-0.695,3.287-1.044,5.112-1.044
		c1.775,0,3.467,0.349,5.076,1.044c1.607,0.696,2.999,1.633,4.176,2.809c1.176,1.177,2.111,2.568,2.808,4.176
		c0.695,1.608,1.044,3.301,1.044,5.076c0,1.969-0.768,3.937-2.304,5.903c-0.528,0.673-1.116,1.309-1.764,1.908
		c-0.648,0.601-1.309,1.188-1.98,1.765c-0.673,0.624-1.332,1.236-1.979,1.836c-0.648,0.601-1.093,1.164-1.332,1.691
		c-0.145,0.337-0.324,0.925-0.54,1.765s-0.324,2.1-0.324,3.779V40.01z M20.358,50.594c0,1.488-0.528,2.761-1.584,3.816
		c-1.056,1.055-2.328,1.584-3.815,1.584c-1.537,0-2.82-0.529-3.853-1.584c-1.032-1.056-1.548-2.328-1.548-3.816
		c0-1.487,0.516-2.76,1.548-3.815s2.315-1.584,3.853-1.584c1.487,0,2.76,0.528,3.815,1.584S20.358,49.106,20.358,50.594z"/>
</g>
</svg>
