<?xml version="1.0" encoding="utf-8"?>
<!-- Generator: Adobe Illustrator 16.0.0, SVG Export Plug-In . SVG Version: 6.00 Build 0)  -->
<!DOCTYPE svg PUBLIC "-//W3C//DTD SVG 1.1//EN" "http://www.w3.org/Graphics/SVG/1.1/DTD/svg11.dtd">
<svg version="1.1" id="Layer_3" xmlns="http://www.w3.org/2000/svg" xmlns:xlink="http://www.w3.org/1999/xlink" x="0px" y="0px"
	 width="566.889px" height="733px" viewBox="0 0 566.889 733" enable-background="new 0 0 566.889 733" xml:space="preserve">
<polygon points="159.055,316.755 176.898,112.812 132.754,53.089 118.835,68.32 97.1,316.755 123.928,364.191 "/>
<polygon points="183.606,105.656 139.258,45.957 152.878,30.984 472.635,30.984 483.727,46.082 429.086,105.656 "/>
<polygon points="407.833,416.244 389.986,620.233 434.213,679.822 448.053,664.68 469.789,416.245 442.961,368.809 "/>
<polygon points="137.985,627.344 83.191,687.043 94.191,702.016 413.948,702.016 427.682,686.918 383.464,627.344 "/>
<polygon points="154.322,413.481 129.057,368.809 129.461,364.191 161.276,321.203 413.31,320.963 437.759,364.191 437.374,368.809 
	404.013,413.859 "/>
</svg>
