<?xml version="1.0" encoding="utf-8"?>
<!-- Generator: Adobe Illustrator 16.0.0, SVG Export Plug-In . SVG Version: 6.00 Build 0)  -->
<!DOCTYPE svg PUBLIC "-//W3C//DTD SVG 1.1//EN" "http://www.w3.org/Graphics/SVG/1.1/DTD/svg11.dtd">
<svg version="1.1" id="Layer_1" xmlns="http://www.w3.org/2000/svg" xmlns:xlink="http://www.w3.org/1999/xlink" x="0px" y="0px"
	 width="31.5px" height="59.5px" viewBox="0 0 31.5 59.5" enable-background="new 0 0 31.5 59.5" xml:space="preserve">
<g opacity="0.7">
	<path d="M18.63,40.01h-7.2v-4.752c0-3.552,0.528-6.455,1.584-8.712c0.528-1.104,1.26-2.124,2.196-3.06
		c0.936-0.937,1.883-1.812,2.845-2.628c0.526-0.528,1.043-1.02,1.547-1.477c0.504-0.455,0.947-0.924,1.332-1.403
		c0.336-0.384,0.541-0.685,0.612-0.9c0.072-0.215,0.108-0.371,0.108-0.468c0-1.632-0.576-3.024-1.729-4.177
		c-1.151-1.151-2.545-1.728-4.176-1.728c-1.633,0-3.024,0.576-4.176,1.728c-1.152,1.152-1.729,2.545-1.729,4.177h-7.2
		c0-1.775,0.348-3.468,1.044-5.076C4.383,9.927,5.32,8.535,6.497,7.358c1.176-1.176,2.556-2.112,4.14-2.809
		c1.584-0.695,3.287-1.044,5.112-1.044c1.774,0,3.467,0.349,5.076,1.044c1.606,0.696,2.999,1.633,4.176,2.809
		c1.176,1.177,2.11,2.568,2.808,4.176c0.695,1.608,1.045,3.301,1.045,5.076c0,1.969-0.769,3.937-2.305,5.903
		c-0.527,0.673-1.115,1.309-1.764,1.908c-0.648,0.601-1.309,1.188-1.98,1.765c-0.673,0.624-1.332,1.236-1.979,1.836
		c-0.648,0.601-1.094,1.164-1.332,1.691c-0.145,0.337-0.324,0.926-0.54,1.766s-0.324,2.1-0.324,3.778V40.01z M20.357,50.594
		c0,1.488-0.527,2.762-1.584,3.816c-1.056,1.055-2.328,1.584-3.814,1.584c-1.537,0-2.82-0.529-3.853-1.584
		c-1.032-1.057-1.548-2.328-1.548-3.816c0-1.486,0.516-2.76,1.548-3.814c1.032-1.055,2.315-1.584,3.853-1.584
		c1.486,0,2.76,0.527,3.814,1.584C19.829,47.835,20.357,49.105,20.357,50.594z"/>
</g>
</svg>
